<svg id="Capa_1" data-name="Capa 1" xmlns="http://www.w3.org/2000/svg" viewBox="0 0 706.13 1031.42"><defs><style>.cls-1{fill:#ffed00;}.cls-2{fill:#e6007e;}.cls-3{fill:#4c7bbe;}</style></defs><path class="cls-1" d="M164.53,278.45c-6.79,5.48-10.78,13.64-16.61,20.13S132.61,310,124.8,306.1c-6.14-3.05-8.86-10.45-9.26-17.29s.92-13.72.25-20.55c-1.36-13.78-10.76-25.59-21.68-34.11-14.69-11.46-33.49-18.53-52-16.24s-36,15.18-40.94,33.15,5.59,39.6,23.6,44.37c14.87,3.93,33.16-2.6,44.59,7.7,7.2,6.49,8.42,17.65,5.83,27s-8.29,17.46-13.32,25.76S52.29,373.28,52.4,383c.09,9,4.17,17.37,8.39,25.29,3.88,7.3,8.1,14.67,14.44,20s15.27,8.29,23.06,5.51c8.55-3,13.56-11.95,16.06-20.67s3.25-18,7-26.23,11.82-15.58,20.84-14.59,15.15,9.66,21.18,16.65c7.85,9.1,18.79,16.82,30.79,16.24s23.47-12.79,19.58-24.17c-2.58-7.55-10.37-11.89-17.75-14.93s-15.43-5.84-20.21-12.23-3.67-17.72,4-20c5.23-1.56,10.58,1.71,14.87,5.08,7.25,5.67,14,12.1,21.85,16.84s17.38,7.71,26.34,5.6c12.42-2.91,21.31-16.45,19-29-2-10.92-12.1-19.64-23-20.61-11.65-1-21,9.69-25.52-4.77-3.9-12.55-2.76-24.28-16.32-31.44C186.89,270.21,173.46,271.23,164.53,278.45Z" transform="translate(44.33 103.86)"/><path class="cls-1" d="M528.08,71.17c.48,9.44,5.09,18.14,7.07,27.39s.24,20.69-8.14,25.07c-6.58,3.44-14.8,1.11-21.06-2.9s-11.45-9.55-17.86-13.3c-13-7.59-29.3-6.88-43.73-2.73-19.4,5.58-37.58,17.56-47.35,35.23s-9.66,41.29,3,57,38.29,20.32,53.94,7.57c12.93-10.54,18.85-30.74,35.16-34.2,10.29-2.18,20.85,3.86,27.4,12.09s10,18.39,14.1,28.09,9.14,19.51,17.71,25.6c7.93,5.63,17.89,7.41,27.52,8.75,8.88,1.25,18,2.24,26.74.08s17-8.12,19.52-16.72c2.78-9.43-1.84-19.51-7.9-27.25s-13.69-14.31-18.53-22.87-6.13-20.3.48-27.57,18.13-7.14,28.1-8c13-1.09,26.72-5.76,33.87-16.66s3.72-28.73-8.73-32.57c-8.27-2.54-17,1.53-24.4,6s-15,9.82-23.6,9.94-17.88-8.07-15-16.23c2-5.57,8.24-8.18,13.93-9.8,9.59-2.74,19.51-4.53,28.69-8.43s17.83-10.33,21.69-19.53c5.36-12.75-.85-29.17-13.3-35.19-10.83-5.24-24.94-1.91-32.77,7.08-8.32,9.56-4.89,24.62-20.43,19.34-13.49-4.58-23.05-13.05-38-5.72C535.1,46.31,527.44,58.74,528.08,71.17Z" transform="translate(44.33 103.86)"/><path class="cls-1" d="M449.07,656.6c7.45,7.72,18.88,10.49,25.68,19.22a17.14,17.14,0,0,1,3.78,9.47c.54,9.56-8,14.29-16,15.47-6.25.93-12.68.27-18.89,1.44-12.56,2.37-22.64,12-29.58,22.69-9.33,14.42-14.3,32.26-10.69,49.05s16.87,31.88,33.77,34.91,35.93-8.35,38.84-25.28c2.41-14-5.08-30.25,3.45-41.58,5.38-7.15,15.53-9.17,24.33-7.55s16.71,6.19,24.74,10.14,16.76,7.41,25.66,6.53c8.23-.82,15.62-5.25,22.55-9.76,6.39-4.17,12.81-8.64,17.19-14.89s6.37-14.7,3.19-21.63c-3.49-7.6-12.08-11.49-20.29-13.07s-16.79-1.53-24.67-4.32-15.27-9.6-15.1-18,7.65-14.71,13.57-20.81c7.73-7.95,13.93-18.62,12.43-29.6s-13.66-20.52-23.8-16c-6.72,3-10.07,10.49-12.27,17.51-2.72,8.7-5,18.32-14.16,22.56-4.76,2.2-10.58.9-13.36-3.54-3.16-5-.34-10.89,2.7-15.56,4.63-7.12,10-13.81,13.7-21.44s5.66-16.59,3-24.65c-3.69-11.17-16.84-18.24-28.19-15.14-9.88,2.69-17.07,12.71-17.07,22.85,0,10.78,10.62,18.53-2.3,23.83-11.21,4.59-22.08,4.5-27.55,17.54C439.69,636.73,441.72,649,449.07,656.6Z" transform="translate(44.33 103.86)"/><path class="cls-2" d="M402.79,529.66c3.42-8.59-6.41-16.79-6.52-25.95-.11-8.64,8.54-15.26,17.09-17.41s17.57-1.37,26.17-3.31a43,43,0,0,0,28-21.26c4.51-8.43,5.65-19.42-.2-26.81-6.12-7.75-17.86-9-27.63-6.42s-18.4,8.28-27.62,12.42-20,6.71-29.24,2.84c-13.95-5.88-17.81-23.07-26.3-35.41-11.68-17-34.93-25.18-55.24-19.54-8.51,2.37-16.71,7.23-21.18,14.76s-4.33,18,1.79,24.06c4,4,9.66,5.62,14.79,8s10.31,6.12,11.15,11.65c1,6.4-4.15,12.09-8.88,16.71L271.7,490.62c-6.78,6.62-13.77,13.56-16.95,22.39s-1.3,20.08,6.79,24.77c7.53,4.37,17.52,1.62,24.89-3.27s13.31-11.71,20.75-16.5,17.57-7.25,24.9-2.57c7,4.5,9,14.06,7.42,22.28s-5.83,15.68-8.85,23.52-4.73,16.81-1.14,24.28c5.43,11.27,21.87,14.24,33.06,8s17.17-19.25,18.06-31.8c.59-8.44-5.62-22.67-2.13-29.87C385.6,535,398.3,541,402.79,529.66Z" transform="translate(44.33 103.86)"/><path class="cls-2" d="M193.44,738.43c-8.08,5.58-4.5,18.81-9.88,27-5.07,7.75-16.49,8.41-25.16,5.16s-16-9.4-24.58-12.88a44.27,44.27,0,0,0-36.92,2C88,764.5,80.4,773.59,81,783.7c.67,10.59,10,18.82,20,22.41s20.84,3.76,31.28,5.65,21.32,6.14,26.94,15.14c8.54,13.67,1.59,31.3,1.55,47.41-.05,22.14,15.11,43.51,36,50.77,8.76,3,18.75,3.68,27.11-.33s14.47-13.36,12.83-22.49c-1.06-5.92-5-10.84-8-16s-5.25-11.68-2.66-17.11c3-6.28,10.81-8.25,17.65-9.5l39.53-7.22c9.81-1.79,20-3.74,28-9.67s13.12-17.09,8.94-26.14c-3.89-8.45-14.16-12-23.45-12.15s-18.49,2.38-27.78,2.14-19.51-4.17-23-12.76c-3.39-8.26.66-17.93,6.91-24.3s14.41-10.44,21.7-15.58,14.14-12.1,15.5-20.92c2.05-13.31-10.37-25.89-23.78-27.07s-26.35,6.75-34.61,17.38c-5.56,7.16-8.7,23.57-16,27.87C211.48,744.07,204.09,731.08,193.44,738.43Z" transform="translate(44.33 103.86)"/><path class="cls-2" d="M373.27,93.22c4.5-11.76-8.88-23.15-9.16-35.74-.25-11.87,11.34-20.85,22.86-23.69s23.72-1.66,35.31-4.21A56.68,56.68,0,0,0,459.89.74c6-11.52,7.39-26.62-.61-36.85C450.9-46.82,435-48.72,421.86-45.27s-24.74,11.12-37.15,16.69-27,9-39.46,3.53c-18.93-8.27-24.36-31.93-36-49-16-23.44-47.5-35-74.87-27.55-11.47,3.13-22.49,9.7-28.43,20S200.34-57,208.69-48.53c5.41,5.49,13.12,7.85,20.09,11.14s14,8.54,15.21,16.14c1.39,8.81-5.46,16.56-11.78,22.84L195.66,37.87c-9.07,9-18.43,18.46-22.62,30.54s-1.48,27.57,9.5,34.12c10.23,6.1,23.69,2.46,33.59-4.16S234,82.46,244,76s23.64-9.73,33.6-3.2c9.57,6.27,12.3,19.43,10.31,30.69s-7.67,21.48-11.65,32.2S270,158.7,275,169c7.48,15.55,29.73,19.84,44.76,11.37s23-26.24,24-43.47c.69-11.58-7.89-31.21-3.27-41C350.11,100.33,367.34,108.71,373.27,93.22Z" transform="translate(44.33 103.86)"/><path class="cls-3" d="M53.58,557.43c-5.6-7.17-16.95-7.37-24.81-2.73s-12.93,12.82-17.21,20.92c-4,7.59-7.7,15.75-7.61,24.32s5,17.64,13.19,19.89c7.56,2.08,15.5-2,21.55-7s11.26-11.32,18.22-15,16.71-3.85,21.54,2.35c5.38,6.91,1.65,17.44-4.44,23.8S59.8,634.57,54.36,641.5c-9.89,12.61-7.52,33.09,5,42.94S92.17,691.71,102,679c6-7.79,8-17.91,9.79-27.59s3.91-19.8,10.14-27.43,18-11.63,26-6.08c6.65,4.6,8.43,13.72,8.18,21.86s-1.95,16.44,0,24.33c4,16,23.25,25,39.18,20.74S223,666,227.63,650.07c3.61-12.4,3.42-26.14-2-37.77s-16.54-20.79-29.23-22.4c-10.72-1.37-21.4,2.47-32.19,3.35s-23.55-2.71-27.23-12.93c-2.13-5.93-.59-12.61,2.05-18.36s6.31-11,8.74-16.81c4.72-11.32,4-25.34-3.7-34.75s-23-12.37-32.61-4.81c-8.44,6.61-10.54,18.48-10.82,29.21s.55,22-4.19,31.66S78.6,582.64,70.1,576.22c-6.23-4.7-7.08-14-5.18-21.59,2-8.1,6.39-15.44,8.73-23.46s2.16-17.68-3.77-23.47c-5.68-5.56-15.35-5.6-22-1.24S37.3,518.71,36.3,526.65s.56,16,2.77,23.66" transform="translate(44.33 103.86)"/><path class="cls-3" d="M26.37,150.78c-5.72,6.54-3.41,17,2.83,23.33s15.29,9.38,24.09,11.75c8.25,2.21,17,4,25.28,2.27s16-8,16.38-16c.35-7.34-5.33-13.85-11.58-18.43S69.9,145.57,64.8,139.89s-7.42-14.61-2.47-20.24c5.52-6.29,16.55-4.9,24.07-.54s13.44,11,21.36,14.63c14.42,6.64,33.76.49,40.56-12.9s-.19-31.58-14.65-38.13c-8.88-4-19.12-3.84-28.92-3.63s-20.08.25-28.85-4S60.65,60.81,64.26,52.35c3-7,11.45-10.41,19.4-11.76s16.38-1.4,23.6-4.73c14.7-6.77,19.13-26.21,11.49-40S94.31-25.93,77.84-27.09C65-28,51.73-25.15,41.65-17.88S25.13,1.34,26.37,13.32c1,10.11,7.11,19.18,10.35,28.92s2.57,22.16-6.53,27.52c-5.28,3.12-12.11,3-18.26,1.69s-12-3.67-18.25-4.77c-12-2.14-25.47,1.21-32.9,10.15s-6.92,23.52,2.53,30.89c8.28,6.46,20.26,6.1,30.73,4.26s21.24-4.77,31.64-2.29S45.31,122.9,41,132c-3.19,6.64-12,9.21-19.81,9-8.3-.28-16.39-2.88-24.68-3.47s-17.63,1.45-21.95,8c-4.14,6.3-2,15.19,3.66,20.48S-7.6,173.26.32,172.63s15.39-3.62,22.34-7.14" transform="translate(44.33 103.86)"/><path class="cls-3" d="M475.91,351.78c3.52,4.76,10.91,5.13,16.11,2.3s8.64-8,11.57-13.16c4-7,7.58-14.87,3.73-23.44l-.09-.15c-6.17-8.78-14.73-5.65-20.66-1-6.14,4.78-11,11.41-20.48,11-10.6-3.46-7.77-13.68-2.32-19,4.07-4,9.43-6.56,13.09-10.93,6.66-7.94,5.47-21.23-2.49-27.86s-21.25-5.4-27.86,2.58c-4.06,4.91-5.49,11.41-6.85,17.63-2,9.19-4.39,19-15.15,23-11.92.85-14.38-8.54-13.93-16.42.31-5.25,1.55-10.58.42-15.72-2.31-10.47-14.71-16.66-25.15-14.25S367.5,278,364.21,288.19c-2.57,7.93-2.68,16.82.67,24.46s10.41,13.79,18.64,15.1c7,1.12,14-1.14,21-1.48s15.28,2.25,17.5,8.94c1.29,3.88.17,8.17-1.65,11.82s-4.3,7-6,10.69c-4.92,10.87-2,25.94,12.92,29.25a2.89,2.89,0,0,0,.83.07c13.3-.65,16.23-11.83,16.75-21.63.54-10.24-.46-21.31,10.87-28.19,12.76-1.49,14.8,8.62,12.71,16.13-1.45,5.2-4.43,9.85-6.09,15-2.31,7.14-1.51,16.43,8.3,18.5,9.35.41,14.75-7.08,15.93-14.78.78-5.12-.09-10.35-1.39-15.36" transform="translate(44.33 103.86)"/></svg>